# xmcd
# 
# Track frame offsets:
#   150
#   20275
#   41711
#   62710
# 
# Disc length: 1152 seconds
# 
# Revision: 5
# Processed by: cddbd v1.5.1PL0 Copyright (c) Steve Scherf et al.
# Submitted via: VOLTOCDX V1.0.24 
# 
DISCID=2c047e04
DTITLE=ghjghjghjgh - ghgfhgfh
DYEAR=2345
DGENRE=extended genre
TTITLE0=hjkjhkhjkj
TTITLE1=
TTITLE2=
TTITLE3=
EXTD=Copyright @ MadzCDDuplicator
EXTT0=
EXTT1=
EXTT2=
EXTT3=
PLAYORDER=
